<svg width="1000" height="1000" viewBox="0 0 1000 1000" fill="none" xmlns="http://www.w3.org/2000/svg">
<rect width="1000" height="1000" rx="175" fill="url(#paint0_linear_2334_2)"/>
<path fill-rule="evenodd" clip-rule="evenodd" d="M31.1854 568.597L22.6556 577.121C22.1682 577.608 20.0154 584.224 19 587.472V595.387L20.8278 600.258L27.5298 606.347L35.4503 610L346.362 607.565L349.408 606.347L501.115 469.96L596.77 561.899H610.174L868.504 309.218H870.941L922.729 396.286L925.775 398.113L933.086 399.331L937.961 398.113L944.053 393.242L947.099 387.762L980 169.786L977.563 164.306L972.689 159.435L967.815 157H965.987H962.331L959.285 157.609L771.021 208.754L766.756 212.407L763.71 217.887L761.882 224.585V228.847L762.492 230.673L763.101 231.282L765.538 235.544L766.756 237.371L840.478 279.383L604.081 511.363H602.254L510.254 421.859L505.989 420.641H499.287L494.413 421.25L335.395 564.944L334.785 565.552L31.7946 568.597H31.1854ZM865.458 256.855L821.59 230.673V229.456L944.662 197.185L945.272 197.794V198.403L925.166 334.181H922.12L891.656 282.427L890.438 281.21V278.5V273.903L889.219 270.859L888 267.815L885 263L879 258.5L875.206 256.855H865.458Z" fill="#00ACF4" stroke="#00ACF4" stroke-width="1.01132"/>
<defs>
<linearGradient id="paint0_linear_2334_2" x1="500" y1="0" x2="500" y2="1000" gradientUnits="userSpaceOnUse">
<stop stop-color="#3D79A9"/>
<stop offset="0.0515528" stop-color="#0E0653"/>
<stop offset="0.987643" stop-color="#263F7E"/>
</linearGradient>
</defs>
</svg>
