<?xml version="1.0" standalone="no"?>
<!DOCTYPE svg PUBLIC "-//W3C//DTD SVG 20010904//EN"
 "http://www.w3.org/TR/2001/REC-SVG-20010904/DTD/svg10.dtd">
<svg version="1.0" xmlns="http://www.w3.org/2000/svg"
 width="1000.000000pt" height="1000.000000pt" viewBox="0 0 1000.000000 1000.000000"
 preserveAspectRatio="xMidYMid meet">

<g transform="translate(0.000000,1000.000000) scale(0.100000,-0.100000)"
fill="#000000" stroke="none">
<path d="M1520 9985 c-787 -108 -1402 -726 -1505 -1512 -22 -167 -22 -6780 0
-6945 16 -120 51 -268 90 -378 40 -111 146 -312 223 -420 86 -122 280 -316
402 -402 236 -167 514 -276 797 -313 167 -22 6780 -22 6945 0 120 16 268 51
378 90 111 40 312 146 420 223 122 86 316 280 402 402 167 236 276 514 313
797 22 167 22 6780 0 6945 -27 202 -81 379 -170 558 -262 523 -763 879 -1342
955 -99 13 -542 15 -3486 14 -2716 -1 -3390 -4 -3467 -14z m8370 -2071 c22
-20 43 -46 45 -58 3 -11 -57 -439 -135 -949 -77 -511 -140 -931 -140 -933 0
-2 -16 -22 -36 -43 -40 -46 -76 -57 -132 -42 -38 11 -42 17 -262 386 -127 215
-228 375 -235 373 -7 -2 -508 -488 -1113 -1080 l-1101 -1078 -56 0 -56 0 -405
390 c-223 215 -409 390 -413 390 -4 0 -293 -257 -642 -571 -349 -314 -643
-576 -654 -584 -16 -11 -415 -18 -2186 -36 -2119 -22 -2168 -23 -2208 -4 -23
10 -55 34 -71 52 -25 28 -30 42 -30 86 0 63 26 121 72 164 l34 33 2004 25
c1103 14 2062 25 2131 25 l126 0 384 348 c212 191 521 470 687 620 l302 272
55 0 c68 0 30 32 501 -427 193 -189 358 -343 365 -343 16 0 2014 1957 2014
1972 0 6 -137 88 -305 183 -326 186 -350 204 -350 274 0 42 29 108 57 133 24
22 1611 456 1670 457 36 1 50 -5 83 -35z"/>
<path d="M9135 7475 c-596 -157 -551 -144 -534 -159 8 -7 91 -59 186 -114 143
-85 179 -102 213 -102 46 0 96 -22 123 -54 31 -37 57 -94 57 -125 0 -34 257
-481 277 -481 6 0 14 12 17 28 7 32 166 1110 166 1123 0 5 -8 9 -17 8 -10 0
-229 -56 -488 -124z"/>
</g>
</svg>
